:SAMPLES-PER-SECOND 30
:FRAME-RANGE 1-1086
:FULLY-SPECIFIED
:DEGREES
238
root  -59.6304 39.568 -64.6614 1.78809 -69.6593 0.983841
RightUpLeg  2.83912 -10.0133 1.68285
RightLeg  6.64674 -34.4186 4.70619
RightFoot  -13.283 -0.0355205 3.21668
RightToes  -5.8209e-011 0 -3.6325e-017
Spine  5.8702 0.0533164 1.68517
Spine1  4.87369 0.437894 -1.2231
HEad  2.4691 18.9152 -8.37794
LeftShoulder1  2.03 -2.49238 -27.7668
LeftArm  1.44835 -12.45 -23.4887
LeftForeArm  -11.7068 -54.1504 -16.5963
LeftHand  0.661002 1.45574 -19.857
RightShoulder  9.74759 16.9991 41.2964
RightArm  -2.12624 7.96693 13.2563
RightForeArm  -17.6871 63.4633 25.2676
RightHand  -0.0932558 -5.71878 16.0516
LeftUpLeg  -13.2779 8.73244 -1.90687
LeftLeg  0.209729 37.9533 -6.95193
LeftFoot  1.98575 -0.679162 5.70535
LeftToes  5.72949e-011 5.22586e-011 2.45399e-011
239
root  -60.1485 39.5014 -64.6573 0.846039 -67.0062 1.18794
RightUpLeg  3.93465 -14.4999 1.33486
RightLeg  8.85278 -32.075 3.13547
RightFoot  -14.2149 0.0271214 4.92296
RightToes  -5.8209e-011 0 -3.6325e-017
Spine  6.02516 0.125038 -0.206216
Spine1  4.94125 0.337833 -0.72939
HEad  2.76393 18.4376 -7.21457
LeftShoulder1  2.01595 -2.45407 -27.7479
LeftArm  1.78796 -12.0658 -23.6343
LeftForeArm  -11.4129 -54.5356 -16.822
LeftHand  0.619076 1.64348 -19.6113
RightShoulder  9.80206 16.9387 41.6797
RightArm  -1.68728 8.06264 12.9356
RightForeArm  -18.4855 62.793 24.5298
RightHand  -0.082132 -5.63175 16.5917
LeftUpLeg  -13.1865 8.10847 -2.36742
LeftLeg  3.35658 36.0577 -4.3562
LeftFoot  1.5478 -0.69595 6.07218
LeftToes  5.72949e-011 5.22586e-011 2.45399e-011
240
root  -60.6438 39.4726 -64.6025 -0.871155 -64.0768 2.54906
RightUpLeg  3.74211 -26.5491 -0.14332
RightLeg  13.6199 -21.9871 -0.748438
RightFoot  -14.8405 0.147148 8.10619
RightToes  -5.8209e-011 0 -3.6325e-017
Spine  6.11463 0.176868 -2.17732
Spine1  4.91415 0.236469 -0.532701
HEad  3.17469 17.4564 -6.13201
LeftShoulder1  2.01551 -2.42307 -27.922
LeftArm  2.27573 -12.3089 -23.893
LeftForeArm  -11.8121 -54.1657 -16.6136
LeftHand  0.594925 1.75362 -19.469
RightShoulder  9.75917 16.6303 42.1724
RightArm  -1.39193 8.06292 12.925
RightForeArm  -19.6285 61.8627 23.5746
RightHand  -0.0557272 -5.45581 16.8189
LeftUpLeg  -12.73 7.3964 -3.20646
LeftLeg  5.06788 33.7366 -3.21885
LeftFoot  1.19458 -0.629384 5.65958
LeftToes  5.72949e-011 5.22586e-011 2.45399e-011
241
root  -61.0976 39.4401 -64.4519 -1.30789 -61.872 2.82529
RightUpLeg  2.14341 -37.6425 -1.07192
RightLeg  19.3562 -11.2096 -4.54573
RightFoot  -14.6421 0.264977 12.6117
RightToes  -5.8209e-011 0 -3.6325e-017
Spine  5.75632 0.327292 -2.21792
Spine1  5.23012 0.72813 -2.00727
HEad  3.78843 16.2876 -5.23509
LeftShoulder1  2.02803 -2.41204 -28.2043
LeftArm  2.62764 -12.6229 -24.2585
LeftForeArm  -12.2201 -53.5846 -16.2794
LeftHand  0.571654 1.82231 -19.1113
RightShoulder  9.72521 16.5034 42.3028
RightArm  -1.35881 7.52979 13.218
RightForeArm  -20.1674 61.0215 22.7341
RightHand  -0.0227977 -5.242 16.7679
LeftUpLeg  -12.4608 7.00452 -3.70223
LeftLeg  6.58766 31.6703 -2.28032
LeftFoot  0.676352 -0.588198 5.54466
LeftToes  5.72949e-011 5.22586e-011 2.45399e-011
242
root  -61.4966 39.374 -64.2748 -1.69861 -60.2464 3.19662
RightUpLeg  -1.01605 -35.8253 -1.75336
RightLeg  27.6372 -11.1755 -6.50367
RightFoot  -13.1827 0.201583 18.0135
RightToes  -5.8209e-011 0 -3.6325e-017
Spine  5.80504 0.565796 -2.42002
Spine1  4.98008 1.21245 -3.27558
HEad  4.51358 15.4852 -4.65376
LeftShoulder1  2.00506 -2.27552 -28.6255
LeftArm  2.53545 -12.058 -24.2717
LeftForeArm  -11.9853 -53.8978 -16.4571
LeftHand  0.545774 1.94972 -18.9866
RightShoulder  9.74516 16.6421 42.0808
RightArm  -0.841905 7.08711 13.4629
RightForeArm  -20.9204 60.1626 21.9444
RightHand  -0.00569332 -5.1347 17.2425
LeftUpLeg  -12.2184 7.09711 -4.10331
LeftLeg  7.80496 29.9918 -1.83492
LeftFoot  -0.333053 -0.485483 5.05579
LeftToes  5.72949e-011 5.22586e-011 2.45399e-011
243
root  -61.8537 39.2988 -64.1087 -1.85077 -58.3717 3.45592
RightUpLeg  -5.0369 -33.0447 -2.40583
RightLeg  36.5615 -10.152 -8.2368
RightFoot  -9.68148 -0.381197 21.4938
RightToes  -5.8209e-011 0 -3.6325e-017
Spine  6.00054 0.659639 -3.16319
Spine1  4.62408 1.29248 -3.64957
HEad  4.62254 14.7914 -4.5612
LeftShoulder1  1.97164 -2.13096 -28.9278
LeftArm  2.39455 -11.196 -24.1949
LeftForeArm  -11.5265 -54.634 -16.8942
LeftHand  0.491916 2.24398 -18.8761
RightShoulder  9.67703 16.7343 41.5575
RightArm  0.0689004 7.0751 13.6259
RightForeArm  -21.7424 59.5908 21.4677
RightHand  0.00624623 -5.06295 17.5554
LeftUpLeg  -12.1283 7.33989 -4.42197
LeftLeg  8.86926 28.0377 -1.77265
LeftFoot  -1.33525 -0.397974 4.63593
LeftToes  5.72949e-011 5.22586e-011 2.45399e-011
244
root  -62.1742 39.242 -63.9665 -2.0303 -56.0957 3.54649
RightUpLeg  -9.15744 -29.2353 -3.03436
RightLeg  45.0284 -8.14564 -8.93402
RightFoot  -4.44689 -1.18127 18.9418
RightToes  -5.8209e-011 0 -3.6325e-017
Spine  6.50175 0.627698 -3.85088
Spine1  4.49848 1.17906 -3.77575
HEad  4.03366 13.9399 -4.68014
LeftShoulder1  1.96827 -2.1184 -28.9461
LeftArm  2.54129 -10.8771 -24.2783
LeftForeArm  -11.2548 -55.0921 -17.1766
LeftHand  0.467514 2.35778 -18.6911
RightShoulder  9.61868 16.7551 41.2404
RightArm  0.530763 7.26374 13.4787
RightForeArm  -21.9198 59.3479 21.2593
RightHand  0.0115 -5.03631 17.9977
LeftUpLeg  -11.9432 7.18962 -4.8211
LeftLeg  9.91922 26.0286 -1.42864
LeftFoot  -2.24361 -0.317049 4.15385
LeftToes  5.72949e-011 5.22586e-011 2.45399e-011
245
root  -62.4824 39.1218 -63.8802 -2.38402 -54.1352 3.77573
RightUpLeg  -12.8759 -24.4372 -3.5146
RightLeg  51.7092 -6.14822 -8.6433
RightFoot  0.113317 -1.46761 14.5681
RightToes  -5.8209e-011 0 -3.6325e-017
Spine  7.08689 0.757167 -4.6528
Spine1  4.71615 1.2396 -4.10424
HEad  3.11514 13.0566 -4.93816
LeftShoulder1  1.97505 -2.1553 -28.8356
LeftArm  2.92298 -11.2387 -24.448
LeftForeArm  -11.3216 -54.9404 -17.0805
LeftHand  0.475804 2.29163 -18.5802
RightShoulder  9.68156 16.8979 41.2155
RightArm  0.396171 7.44622 13.2914
RightForeArm  -22.0992 59.0322 20.9905
RightHand  0.0270912 -4.94616 18.2472
LeftUpLeg  -12.1404 7.19309 -5.14301
LeftLeg  11.8009 24.1505 -0.778438
LeftFoot  -3.45602 -0.228143 3.61197
LeftToes  5.72949e-011 5.22586e-011 2.45399e-011
246
root  -62.8079 39.0628 -63.824 -2.28535 -52.2729 3.61459
RightUpLeg  -15.8107 -19.9439 -3.9477
RightLeg  56.1091 -4.35486 -7.36129
RightFoot  -0.944185 -1.34129 14.5979
RightToes  -5.8209e-011 0 -3.6325e-017
Spine  7.63255 0.864715 -5.3304
Spine1  4.80272 1.262 -4.29463
HEad  2.39048 12.4594 -4.93597
LeftShoulder1  1.97094 -2.1552 -28.7622
LeftArm  3.04019 -11.6338 -24.567
LeftForeArm  -11.3819 -54.799 -16.9916
LeftHand  0.461523 2.36406 -18.5026
RightShoulder  9.79578 17.0443 41.418
RightArm  0.285238 7.58644 13.2065
RightForeArm  -22.4328 58.5438 20.5897
RightHand  0.0617204 -4.7379 18.2253
LeftUpLeg  -12.2473 7.29039 -5.14818
LeftLeg  13.1835 22.217 -0.438902
LeftFoot  -4.4367 -0.148407 2.90326
LeftToes  5.72949e-011 5.22586e-011 2.45399e-011
247
root  -63.1431 39.0602 -63.753 -1.62659 -50.2541 3.10361
RightUpLeg  -18.6026 -15.8633 -4.16857
RightLeg  58.2393 -3.85495 -7.14211
RightFoot  -1.95877 -1.13985 13.6663
RightToes  -5.8209e-011 0 -3.6325e-017
Spine  7.88389 0.755629 -5.805
Spine1  4.76396 1.09581 -4.32803
HEad  2.11587 11.8507 -4.38092
LeftShoulder1  1.95807 -2.13218 -28.6738
LeftArm  2.98993 -11.8072 -24.6815
LeftForeArm  -11.4141 -54.7995 -16.9943
LeftHand  0.446154 2.45328 -18.4894
RightShoulder  9.86844 17.1091 41.6072
RightArm  0.311489 7.73199 13.1484
RightForeArm  -22.4512 58.1187 20.2339
RightHand  0.0882156 -4.60886 19.0507
LeftUpLeg  -12.3185 7.28632 -4.94906
LeftLeg  13.8017 20.2201 -0.409108
LeftFoot  -5.2045 -0.0786154 2.05167
LeftToes  5.72949e-011 5.22586e-011 2.45399e-011
